<svg width="1512" height="982" viewBox="0 0 1512 982" fill="none" xmlns="http://www.w3.org/2000/svg">
<g clip-path="url(#clip0_40_39)">
<rect width="1512" height="982" fill="#0E0D0D"/>
<g style="mix-blend-mode:lighten">
<path d="M629.6 1022H-12.4V186.8H312.8C382.4 186.8 439.2 199.2 483.2 224C526.4 248 560 280.8 584 322.4C608 364 620 410 620 460.4C620 522.8 600.8 578.8 562.4 628.4C524 677.2 475.6 709.6 417.2 725.6L629.6 1022ZM63.2 231.2L389.6 687.2C443.2 676 487.6 649.2 522.8 606.8C558 564.4 575.6 515.6 575.6 460.4C575.6 416.4 564.8 376.4 543.2 340.4C521.6 304.4 491.2 276.8 452 257.6C416.8 240 370.8 231.2 314 231.2H63.2ZM32 260V690.8H340.4L32 260ZM32 977.6H545.6L370.4 734L333.2 735.2H32V977.6ZM818.281 1022L1145.88 604.4L818.281 186.8H1527.48L1199.88 604.4L1527.48 1022H818.281ZM1172.28 568.4L1437.48 231.2H908.281L1172.28 568.4ZM1437.48 977.6L1172.28 640.4L908.281 977.6H1437.48Z" fill="white" fill-opacity="0.01"/>
</g>
</g>
<defs>
<clipPath id="clip0_40_39">
<rect width="1512" height="982" fill="white"/>
</clipPath>
</defs>
</svg>
